PathFileType        4      (X/Y/Z)      C:\Users\pc\Desktop\IMUTRC\Sujet_08\Sujet_08_velo_80.trc         
DataRate	CameraRate	NumFrames	NumMarkers	Units	OrigDataRate	OrigDataStartFrame	OrigNumFrames
60.0	60.0	4	64	mm	60.0	118	940
Frame#	Time	pHipOrigin			pRightASI			pLeftASI			pRightCSI			pLeftCSI			pRightIschialTub			pLeftIschialTub			pSacrum			pL5SpinalProcess			pL3SpinalProcess			pT12SpinalProcess			pIJ			pT4SpinalProcess			pT8SpinalProcess			pPX			pC7SpinalProcess			pTopOfHead			pRightAuricularis			pLeftAuricularis			pBackOfHead			pRightAcromion			pLeftAcromion			pRightArmLatEpicondyle			pRightArmMedEpicondyle			pLeftArmLatEpicondyle			pLeftArmMedEpicondyle			pRightUlnarStyloid			pRightRadialStyloid			pRightOlecranon			pLeftUlnarStyloid			pLeftRadialStyloid			pLeftOlecranon			pRightTopOfHand			pRightPinky			pRightBallHand			pLeftTopOfHand			pLeftPinky			pLeftBallHand			pRightGreaterTrochanter			pRightKneeLatEpicondyle			pRightKneeMedEpicondyle			pRightPatella			pLeftGreaterTrochanter			pLeftKneeLatEpicondyle			pLeftKneeMedEpicondyle			pLeftPatella			pRightTibialTub			pRightLatMalleolus			pRightMedMalleolus			pLeftTibialTub			pLeftLatMalleolus			pLeftMedMalleolus			pRightHeelFoot			pRightFirstMetatarsal			pRightFifthMetatarsal			pRightPivotFoot			pRightHeelCenter			pRightToe			pLeftHeelFoot			pLeftFirstMetatarsal			pLeftFifthMetatarsal			pLeftPivotFoot			pLeftHeelCenter			pLeftToe			
		X1	Y1	Z1	X2	Y2	Z2	X3	Y3	Z3	X4	Y4	Z4	X5	Y5	Z5	X6	Y6	Z6	X7	Y7	Z7	X8	Y8	Z8	X9	Y9	Z9	X10	Y10	Z10	X11	Y11	Z11	X12	Y12	Z12	X13	Y13	Z13	X14	Y14	Z14	X15	Y15	Z15	X16	Y16	Z16	X17	Y17	Z17	X18	Y18	Z18	X19	Y19	Z19	X20	Y20	Z20	X21	Y21	Z21	X22	Y22	Z22	X23	Y23	Z23	X24	Y24	Z24	X25	Y25	Z25	X26	Y26	Z26	X27	Y27	Z27	X28	Y28	Z28	X29	Y29	Z29	X30	Y30	Z30	X31	Y31	Z31	X32	Y32	Z32	X33	Y33	Z33	X34	Y34	Z34	X35	Y35	Z35	X36	Y36	Z36	X37	Y37	Z37	X38	Y38	Z38	X39	Y39	Z39	X40	Y40	Z40	X41	Y41	Z41	X42	Y42	Z42	X43	Y43	Z43	X44	Y44	Z44	X45	Y45	Z45	X46	Y46	Z46	X47	Y47	Z47	X48	Y48	Z48	X49	Y49	Z49	X50	Y50	Z50	X51	Y51	Z51	X52	Y52	Z52	X53	Y53	Z53	X54	Y54	Z54	X55	Y55	Z55	X56	Y56	Z56	X57	Y57	Z57	X58	Y58	Z58	X59	Y59	Z59	X60	Y60	Z60	X61	Y61	Z61	X62	Y62	Z62	X63	Y63	Z63	X64	Y64	Z64	
118	1.95	0.0	1249.97582	7.653894434872941E-14	106.91144599892017	1316.70798	123.45759266487987	71.7600280319565	1333.35063	-138.05711151653614	80.81297076103671	1392.81173	108.3080192701937	51.87695984254485	1406.54596	-107.07159841934495	-60.077082267290315	1208.28842	60.53669119203362	-74.54508451259818	1215.07474	-47.15312148295791	-56.243661662538784	1287.78533	9.967047249675616	6.224390433661107	1371.64487	6.910292341598095	72.78564185051464	1465.52232	4.75702001016531	134.0073609109128	1551.32082	3.1855869750733445	379.81356055955223	1593.1698	-24.054177857314887	269.434722411423	1683.81567	-3.6164074284326766	203.15656750841234	1629.36352	0.4618327618356946	292.4931511833271	1515.1271	-19.281879313745456	313.4129259630055	1718.87833	-8.26683690777933	562.1197560082944	1777.20838	-6.285008293049889	470.29716271736595	1744.24625	57.143745978010365	479.2135302713981	1736.00571	-76.90623028023147	454.2993148548471	1788.6805	-14.284836109072248	340.06759700225786	1650.20722	141.70963419163726	298.66094673640646	1671.05092	-166.3954423082852	454.4214320084401	1386.83331	132.62249597085116	422.9838404816677	1373.42224	81.35388529874683	403.9007086871236	1403.63753	-172.16202022866312	383.0811849205562	1392.97331	-115.17461110976973	538.6315793471729	1151.41258	142.1145031050718	582.08640744059	1169.99417	120.994494904738	416.79308967059075	1374.06856	119.39917411426316	480.18805535938077	1168.2168	-199.4805119574271	526.5550633605936	1190.02998	-206.9778077216257	369.76468457401336	1390.54963	-141.5351984210309	719.103416835941	1067.55303	200.52975751635228	627.8906727052274	1073.69304	181.78704369380543	581.8941153873554	1120.38939	141.0820853689242	619.6359718194934	1076.76304	-324.1916145063403	548.225389514216	1085.00357	-264.7277897859357	522.156061590038	1138.16309	-215.30939199252813	25.426761513266698	1215.55947	158.22689968440508	249.41956765822061	889.00814	133.35432248310372	255.9066807945727	892.07814	56.74723449956289	286.67998599938323	917.1229	96.49025407006833	17.771744583234664	1245.45161	-158.6802617932487	385.38625223742673	1097.9299	-136.0204920931294	386.94612686835984	1097.44516	-59.19991253794526	399.4182255336228	1138.64783	-94.92748651491642	283.3607093782377	842.9581	99.18914462841201	46.72812808031003	546.29889	142.14168999194376	50.076498487537705	540.96678	82.0952143562622	427.7221888926467	1062.3825	-101.76198951905145	289.67900214917165	709.17061	-147.14451314758128	295.16439318517143	704.48482	-87.06804917004868	-34.900922755557936	515.43729	109.71522610868504	72.18883576334413	407.82562	64.79215355219976	72.04003309701079	401.84719	139.12435712246796	86.7174112333468	389.72876	99.76313798939479	-7.213055372648405	490.71569	107.63692383533456	141.59803615468923	331.88345	95.19108695480121	229.52117383565758	645.34687	-117.68177957232095	375.78800179144184	589.60209	-93.66294504724219	371.3442128664018	594.77262	-168.052104805467	393.46022317170633	584.75472	-131.56581781387982	265.1763668618366	635.00581	-120.4571325180769	467.69006387720754	556.3168	-137.83071297578226	
119	1.967	0.0	1249.97582	7.653894434872941E-14	106.24844458878923	1317.3543	123.74497926541022	72.33908365926027	1332.70431	-137.99308157285503	79.98636021149457	1393.45805	108.03626608256624	52.06477490778957	1406.06122	-107.5467859967995	-60.324637189528644	1208.44999	60.32896794808732	-74.33736769652798	1214.75158	-47.400668744751805	-56.283493340830816	1287.78533	9.511769083490982	5.956919672276763	1371.64487	6.474930014559477	72.51817108913029	1465.6839	4.321657683126699	133.53216690558216	1551.4824	2.997779570273056	379.56172321107084	1593.33138	-22.999928224680463	269.0192759235304	1683.97725	-3.1212975839560038	202.80515739207692	1629.5251	0.37787931856414075	292.20148858442974	1515.28868	-18.682915507740056	313.12125693623204	1719.03991	-7.667865441329504	561.764063465716	1777.69312	-5.106988859740629	469.94146251434313	1744.40783	58.32175898344345	478.8578236404991	1736.49045	-75.72820961435393	453.83975302985107	1789.00366	-12.983045642520015	339.32065746974433	1650.3688	142.3484437642552	298.70077841469845	1671.37408	-165.94016414210054	454.357408492635	1387.31804	133.20154393771048	423.0236721599597	1373.90698	81.80916346493146	404.04440198738877	1403.96069	-171.8305195235977	383.2248782208214	1393.29647	-114.84311040470425	539.0868575133575	1152.05889	142.07467142677973	582.5416856067748	1170.80207	120.95466322644602	416.7091503156397	1374.39172	119.75058299803018	480.66324170426697	1168.70154	-199.29271098050293	527.0103415267782	1190.67629	-207.01763939991775	369.90837787427853	1390.71121	-141.20369771596543	719.7664118181957	1068.36093	200.24237857626633	628.5536676874823	1074.33935	181.4996647537195	582.4532551755132	1121.19729	140.91847622951295	620.1950975193306	1077.57093	-324.3552224131832	548.6806676804007	1085.64989	-264.76762146422783	522.5074781342494	1138.80941	-215.22544620970103	27.515337278945125	1217.66	158.50292887039947	264.12779408765937	900.1571	133.67317566649456	269.229164546756	902.4192	56.95795006261359	299.5713975112154	929.24133	95.70647394579873	16.386001905979185	1241.41213	-158.78839941358885	376.90819099722216	1076.76304	-137.22849344041347	379.73003207685986	1078.70199	-60.403623798541865	393.55231773945326	1118.12728	-97.74030353749383	294.7383170928838	852.81442	99.45532405008932	44.35923946982576	568.11207	145.21619535988802	47.356199760718056	562.29522	85.08576628093486	421.41663634519546	1043.8009	-103.0453629036638	295.6089398870223	685.58007	-144.91075175230768	301.77724051185464	681.54059	-84.89404172008919	-38.57589191928196	540.64363	113.59213610033788	63.30239536309534	428.18458	68.09280567390633	63.60887729082272	422.52931	142.38516990543806	77.35577682776736	409.60299	102.87598270630106	-12.046121702659491	514.62939	111.38577270705682	129.4649151620305	349.49557	98.08764234270672	238.3463756217067	619.6558	-115.1278672260734	386.72597118068234	569.72786	-91.8673296480442	381.8269040894577	574.57523	-166.21665772797698	404.3981849005025	565.52681	-129.77020884255796	274.3330552646306	610.76895	-118.04691223952616	479.62252129332387	540.15889	-136.46617624481152	
120	1.983	0.0	1249.97582	7.653894434872941E-14	105.35780409556598	1318.32377	124.05228170508659	73.02200090853722	1332.058	-138.05282909029305	79.15975732239689	1394.10437	107.76451932281493	52.58407658977923	1405.57648	-108.16566564195088	-60.676053733740126	1208.77315	60.24502216526018	-73.90200536948936	1214.42842	-47.66813950613614	-56.44710890811811	1287.78533	8.952636955777631	5.793304104989476	1371.80645	5.915797886846126	72.25069389986986	1465.6839	3.886303016532506	133.28461198334384	1551.64398	2.7900563263267513	379.43366975158466	1593.49296	-21.841824630517284	268.707691057611	1684.13883	-2.7499652005985347	202.47365668701147	1629.68668	0.5215726188292965	292.1374586407486	1515.45026	-18.103859880436282	312.84950374860466	1719.20149	-6.8412548917874085	561.4481949409851	1778.17786	-3.473697688122973	469.48190192191544	1744.56941	59.623563538316226	478.74968602015895	1736.97519	-74.34246693709854	453.50396989854255	1789.32681	-11.577379465674088	338.46985508268915	1650.3688	143.1110167096718	298.6367484710173	1671.53566	-165.36110851479674	454.0657394658616	1387.80278	133.80051540416034	423.0635038382517	1374.39172	82.26444163111609	404.31186508832866	1404.12227	-171.39516362443516	383.2647098991134	1393.29647	-114.38783223851962	539.6459908736392	1152.70521	141.91106994781302	583.1207412340785	1171.60996	121.01869317012715	416.64512037195857	1374.87645	120.32963862533398	481.3660747926899	1169.18628	-199.12481941484867	527.4855355321088	1191.16103	-206.82983199511744	370.1758486356629	1390.87278	-140.76833538892683	720.4094973891807	1069.00724	199.72735289264367	629.092891636494	1075.14725	181.108416531216	583.0123885357949	1122.00518	140.7548747505462	620.6503756855154	1078.37883	-324.3950540914752	549.3635772692332	1086.2962	-264.8273754095419	523.0865337615533	1139.29415	-215.1614162660199	29.35635169450913	1219.92211	158.571242472892	279.70674640374375	912.92184	133.45710141543722	283.1947338699242	914.37606	56.653639942041565	313.0020188837389	943.13713	94.53144683159397	14.66875729108989	1236.56476	-158.75285782198432	365.61452906540313	1052.68775	-137.84608940630233	370.25746872145885	1057.21197	-61.180545245030395	385.5338183242447	1094.37516	-100.25009535133016	307.00656530075327	864.6097	99.41420103209028	44.57831246786357	591.37946	147.72021118558294	47.24377205369039	584.9163	87.733475406895	412.81479764387166	1022.14931	-104.35722587292099	298.8072150556412	659.56583	-142.4380079477264	305.782211623438	656.17267	-82.37716972265225	-39.435252730947155	567.1426	116.87864713847149	57.47910934413093	450.64407	71.01076156984337	58.137001388193696	445.15039	145.38707924464669	71.07722030306275	431.41616	105.83377670840625	-13.939823968257542	540.15889	114.64807905192524	120.53864951136579	369.36979	100.93300863778423	244.4598306776701	591.8642	-112.10733338742581	394.70464657804337	547.59153	-89.81280957251641	389.01880704344467	552.11574	-163.9786203343364	412.2530828367443	543.87521	-127.81955038900327	280.6542335645404	584.26998	-115.27393332311696	488.2442758337937	521.25414	-134.92667419246195	
121	2.0	0.0	1249.97582	7.653894434872941E-14	104.36331606869011	1318.97009	124.48336037331379	74.07623645285113	1331.57326	-137.80099050924332	78.2292851508816	1394.75068	107.61654359630666	53.24707033946572	1405.09174	-108.45305867035734	-61.047378456653185	1208.93473	59.933443727216826	-73.5904205035699	1214.10526	-48.03947188949364	-56.61071804752929	1287.78533	8.393497167619852	5.629702626022715	1371.80645	5.35666452656444	72.12691643875068	1465.84548	3.7824413945593536	133.05697290025154	1551.64398	2.8099721654727743	379.32551804292405	1593.49296	-20.456080720693496	268.55971409853436	1684.13883	-1.8195071174037416	202.40962674333036	1629.84825	1.1006282461330843	291.9894893421165	1515.45026	-17.17339536936543	312.61758866714536	1719.20149	-5.559373836505082	561.2760273769638	1778.50101	-1.508899383563692	469.2898185187481	1744.56941	61.36072275978318	478.6614565785204	1737.45993	-72.72909160462684	453.33179467407683	1789.48839	-9.612587588990923	337.65888437392607	1650.3688	144.32886782127298	299.0678207113684	1671.69724	-164.36661282747647	453.7939862782341	1387.96436	134.62712595370246	423.10333551654367	1374.87645	82.71971979730074	404.84680661109735	1404.28385	-170.5244389703579	383.67587272819463	1393.45805	-113.62098329473605	540.0173232569967	1153.35153	142.22265481373245	583.3682961563169	1172.25628	121.22641641407346	416.47722880630425	1375.19961	121.03247171375693	481.73740717604744	1169.34786	-198.81323454892922	527.980637716141	1191.32261	-206.41439193510092	370.4831434148948	1390.87278	-139.87770132357963	720.8448597162193	1069.49198	199.45988213125932	629.5481698026787	1075.63198	181.06858485292395	583.363797419562	1122.48992	140.83881410549728	621.1056538517	1078.86357	-324.4348857697673	549.7149938134446	1086.61936	-264.7434296267147	523.6854975675586	1139.45572	-214.86975366712252	30.969727026980834	1222.02264	158.6594719145306	295.03813613714533	926.81765	133.03329749255747	297.2641583871895	927.62554	56.22556002079489	326.3088768834637	958.16399	93.25255686284767	12.827742875525885	1232.52528	-158.8211714244769	352.7672252302299	1028.61247	-137.86899633198436	358.9837226287858	1035.07563	-61.57050212782686	375.6301763006164	1070.1383	-102.02150482469459	319.37866870271966	877.6976	99.24930821341646	47.07376220850402	614.80843	150.0250698523861	49.283943628146204	607.86053	90.07816575199017	402.43168561654585	1000.17455	-105.05447753494943	298.98646403583143	634.19792	-140.38926386033998	306.2929536482493	631.28949	-80.47212536340713	-37.79060537736185	592.99525	119.94607875069121	54.9864432725275	473.26515	73.98140531581444	55.99575186080175	468.09462	148.4416687734449	68.1292760652747	453.87566	108.84425213266934	-13.329502747716212	565.20365	117.69131882663194	115.74969085801371	390.05192	103.87517045955477	246.3961406301528	565.04207	-109.6388655812115	397.9868751899339	524.97045	-87.69147588427049	392.0534807330969	529.00993	-162.06500989003675	415.5153956094888	521.57729	-125.9258557838497	282.9220518825329	558.41733	-112.94915238929171	492.0657207342515	501.05675	-133.19659515459563	
